# xmcd
#
# Track frame offsets: 
#        150
#        16707
#        30183
#        42284
#        62099
#        84555
#        100488
#        116083
#        131224
#        140564
#        156109
#        175113
#        186666
#        203730
#
# Disc length: 2977 seconds
#
# Revision: 0
# Processed by: cddbd v1.5.2PL0 Copyright (c) Steve Scherf et al.
# Submitted via: ExactAudioCopy v0.95a5
#
DISCID=bf0b9f0e
DTITLE=Joe Doucet - Houston's Third Ward Blues
DYEAR=2006
DGENRE=Blues
TTITLE0=Got You On My
TTITLE1=I Ain't Going Down
TTITLE2=Hey Leo
TTITLE3=Scratch My Back
TTITLE4=Recitation
TTITLE5=Bad Luck
TTITLE6=Matilda
TTITLE7=If You Love Me (Like You Say)
TTITLE8=Just A Little Bit
TTITLE9=Walking With Franklin
TTITLE10=Bird Without A Feather
TTITLE11=I've Got To Find My Baby
TTITLE12=Back At The Chicken Shack
TTITLE13=Rock Me Baby
EXTD=
EXTT0=
EXTT1=
EXTT2=
EXTT3=
EXTT4=
EXTT5=
EXTT6=
EXTT7=
EXTT8=
EXTT9=
EXTT10=
EXTT11=
EXTT12=
EXTT13=
PLAYORDER=
